HIERARCHY
ROOT root
{
	OFFSET	0	13.1	24.9
	CHANNELS 6  Xposition Yposition Zposition Xrotation Yrotation Zrotation
	JOINT spine_1
	{
		OFFSET	0	9.99999	0
		CHANNELS 3  Xrotation Yrotation Zrotation
		JOINT spine_2
		{
			OFFSET	0	112	-10
			CHANNELS 3  Xrotation Yrotation Zrotation
			JOINT spine_3
			{
				OFFSET	0	206.5	19.3
				CHANNELS 3  Xrotation Yrotation Zrotation
				JOINT spine_4
				{
					OFFSET	0	110.4	14.6
					CHANNELS 3  Xrotation Yrotation Zrotation
					JOINT neck_1
					{
						OFFSET	0	71.8	-50.3
						CHANNELS 3  Xrotation Yrotation Zrotation
						JOINT neck_2
						{
							OFFSET	0	86.2	-25.8
							CHANNELS 3  Xrotation Yrotation Zrotation
							JOINT head_ee
							{
								OFFSET	0	179.8	-8.7
								CHANNELS 3  Xrotation Yrotation Zrotation
								End Site
								{
									OFFSET	1	0	0
								}
							}
						}
					}
					JOINT left_clavicle
					{
						OFFSET	-43.2	22.4	-70.8
						CHANNELS 3  Xrotation Yrotation Zrotation
						JOINT left_shoulder
						{
							OFFSET	-93.9	-5.79999	48.7
							CHANNELS 3  Xrotation Yrotation Zrotation
							JOINT left_elbow
							{
								OFFSET	-291.4	-30.8	15.2
								CHANNELS 3  Xrotation Yrotation Zrotation
								JOINT left_lowarm_twist
								{
									OFFSET	-110.7	-3.89999	13.6
									CHANNELS 3  Xrotation Yrotation Zrotation
									JOINT left_hand
									{
										OFFSET	-110.7	-3.89999	13.6
										CHANNELS 3  Xrotation Yrotation Zrotation
										JOINT left_ee
										{
											OFFSET	-80.8	-5.10001	12.1
											CHANNELS 3  Xrotation Yrotation Zrotation
											End Site
											{
												OFFSET	1	0	0
											}
										}
									}
								}
							}
						}
					}
					JOINT right_clavicle
					{
						OFFSET	43.2	22.4	-70.8
						CHANNELS 3  Xrotation Yrotation Zrotation
						JOINT right_shoulder
						{
							OFFSET	93.9	-5.79999	48.7
							CHANNELS 3  Xrotation Yrotation Zrotation
							JOINT right_elbow
							{
								OFFSET	291.4	-30.8	15.2
								CHANNELS 3  Xrotation Yrotation Zrotation
								JOINT right_lowarm_twist
								{
									OFFSET	110.7	-3.89999	13.6
									CHANNELS 3  Xrotation Yrotation Zrotation
									JOINT right_hand
									{
										OFFSET	110.7	-3.89999	13.6
										CHANNELS 3  Xrotation Yrotation Zrotation
										JOINT right_ee
										{
											OFFSET	80.8	-5.10001	12.1
											CHANNELS 3  Xrotation Yrotation Zrotation
											End Site
											{
												OFFSET	1	0	0
											}
										}
									}
								}
							}
						}
					}
				}
			}
		}
	}
	JOINT left_hip
	{
		OFFSET	-82.8	-127.5	0.300001
		CHANNELS 3  Xrotation Yrotation Zrotation
		JOINT left_knee
		{
			OFFSET	-28.2	-396.7	2.2
			CHANNELS 3  Xrotation Yrotation Zrotation
			JOINT left_ankle
			{
				OFFSET	-11.7	-411.3	35.4
				CHANNELS 3  Xrotation Yrotation Zrotation
				JOINT left_toes
				{
					OFFSET	0	-60	-88.6
					CHANNELS 3  Xrotation Yrotation Zrotation
					JOINT left_foot_ee
					{
						OFFSET	-22.5	-16.5	-42.2
						CHANNELS 3  Xrotation Yrotation Zrotation
						End Site
						{
							OFFSET	1	0	0
						}
					}
				}
			}
		}
	}
	JOINT right_hip
	{
		OFFSET	82.8	-127.5	0.300001
		CHANNELS 3  Xrotation Yrotation Zrotation
		JOINT right_knee
		{
			OFFSET	28.2	-396.7	2.2
			CHANNELS 3  Xrotation Yrotation Zrotation
			JOINT right_ankle
			{
				OFFSET	11.7	-411.3	35.4
				CHANNELS 3  Xrotation Yrotation Zrotation
				JOINT right_toes
				{
					OFFSET	0	-60	-88.6
					CHANNELS 3  Xrotation Yrotation Zrotation
					JOINT right_foot_ee
					{
						OFFSET	22.5	-16.5	-42.2
						CHANNELS 3  Xrotation Yrotation Zrotation
						End Site
						{
							OFFSET	1	0	0
						}
					}
				}
			}
		}
	}
}
MOTION
Frames: 14
Frame Time: 0.02
363.523 724.088 -603.02 171.074 -52.9393 164.071 -2.68714 1.41022 5.90177 -2.66837 1.03251 5.97917 -2.53438 -0.515009 6.04552 -2.58507 0.444434 6.0511 -22.01 17.33 -6.87178 -24.572 36.5517 2.56293 -0.0 0.0 -0.0 -8.29826 21.8861 -9.4052 16.659 -4.53342 76.2211 2.23122 -47.8564 0.990154 7.06346 0.194784 -0.880678 5.33902 28.878 45.776 -0.0 0.0 -0.0 12.199 27.6197 -23.6422 -4.96899 22.4907 -64.3582 0.191343 5.41477 -0.00904827 69.356 2.67382 7.89978 0.599081 2.51902 -2.95949 0.0 0.0 0.0 -16.0613 52.7478 11.7956 -9.70044 0.276243 1.46131 22.978 -11.3905 -3.25585 -20.0907 0.0 0.0 -0.0 0.0 -0.0 11.4175 30.5132 1.83791 -26.6459 -0.157854 -4.04933 24.1289 -19.4066 3.30931 1.04951 -0.0 -0.0 0.0 0.0 0.0 
372.704 722.744 -599.451 171.19 -51.9289 164.071 -2.73584 1.33865 5.9604 -2.7166 0.957374 6.03313 -2.58912 -0.607656 6.07816 -2.64046 0.358061 6.09788 -21.3905 16.6626 -5.93886 -23.6027 34.9091 2.75881 -0.0 0.0 -0.0 -6.29214 23.627 -5.92193 15.3605 3.34714 73.3736 2.19546 -47.3957 0.963738 5.20809 0.154166 -0.64716 4.90401 31.4172 42.2259 -0.0 0.0 -0.0 12.1728 27.4321 -23.6056 -3.12449 25.4649 -63.9496 0.178187 5.04448 -0.00784908 69.5345 2.69221 7.91343 -0.0220065 2.10849 1.03861 0.0 0.0 0.0 -15.2434 52.8791 11.6081 -11.269 0.29751 1.70104 23.3175 -10.6072 -3.28336 -18.5836 0.0 0.0 -0.0 0.0 -0.0 10.377 29.2956 2.75813 -26.357 -0.166274 -4.0058 23.198 -8.23692 3.12009 1.77842 -0.0 -0.0 0.0 0.0 0.0 
382.023 720.334 -587.46 171.258 -50.6464 163.76 -2.58438 1.43438 5.97689 -2.56513 1.05187 6.05565 -2.42761 -0.504153 6.12536 -2.47962 0.467693 6.12824 -22.0824 14.7576 -5.22522 -23.8313 30.8638 2.48204 -0.0 0.0 -0.0 -6.45191 23.9218 -6.0562 14.1244 4.60265 72.6757 1.94633 -43.9498 0.785441 1.54818 0.0519699 -0.190899 4.51033 31.2759 39.2839 -0.0 0.0 -0.0 12.0394 27.4225 -23.3029 -0.221629 28.242 -64.7151 0.193828 5.48466 -0.00928425 69.6462 2.70374 7.92194 -0.386785 2.56056 3.68243 0.0 0.0 0.0 -14.4865 49.1353 11.3514 -12.4641 0.309304 1.88403 22.761 -7.03977 -3.15929 -16.9141 0.0 0.0 -0.0 0.0 -0.0 9.78715 29.8687 2.52455 -27.7384 -0.124025 -4.21358 21.9664 -1.89027 2.98302 1.54186 -0.0 -0.0 0.0 0.0 0.0 
395.541 724.677 -585.032 171.019 -50.9617 163.217 -2.58326 1.30277 5.94357 -2.56409 0.922626 6.01407 -2.44171 -0.620963 6.05252 -2.49262 0.340894 6.07465 -22.2828 13.4622 -5.08768 -23.733 28.3003 1.91486 -0.0 0.0 -0.0 -5.76552 23.7004 -5.16379 9.82338 11.9419 73.1434 2.16588 -47.0085 0.942032 1.50598 0.050622 -0.185677 4.2464 30.9466 37.3832 -0.0 0.0 -0.0 12.1562 27.5249 -23.5564 0.27384 29.7279 -64.7173 0.194664 5.50818 -0.0093643 69.1965 2.65743 7.88754 -0.781998 1.84198 6.03353 0.0 0.0 0.0 -14.4527 49.1281 11.2503 -15.2431 0.321959 2.31018 22.5077 -7.03514 -3.12829 -14.9808 0.0 0.0 -0.0 0.0 -0.0 9.05903 29.4784 3.54775 -29.1248 -0.0765939 -4.42106 21.8608 4.21933 3.01562 -0.0546476 0.0 0.0 0.0 0.0 0.0 
409.488 728.103 -578.673 170.751 -51.1891 162.707 -2.56406 1.25805 6.08647 -2.54388 0.868951 6.15384 -2.42423 -0.706658 6.1745 -2.47728 0.275416 6.20857 -21.2136 12.7007 -3.39457 -22.3617 26.1155 2.7739 -0.0 0.0 -0.0 -5.46216 23.1058 -4.90435 6.35891 14.5114 72.6093 2.36107 -49.4626 1.08765 0.601465 0.0208037 -0.073999 3.99112 30.3862 35.5705 -0.0 0.0 -0.0 12.4863 27.3182 -24.3361 1.57481 30.9709 -65.2973 0.205207 5.80452 -0.0104034 69.0058 2.63787 7.87283 -1.16907 1.03556 8.29275 0.0 0.0 0.0 -14.0682 48.0181 10.6495 -17.3588 0.31773 2.63475 21.7694 -4.44919 -3.00683 -13.3415 0.0 0.0 -0.0 0.0 -0.0 7.79174 29.7551 4.437 -31.4977 0.0162078 -4.77337 23.2205 11.3708 3.28543 0.353293 -0.0 -0.0 0.0 0.0 0.0 
419.221 729.087 -576.596 170.833 -52.0021 163.009 -2.58469 1.24497 5.95207 -2.56541 0.864409 6.01889 -2.44924 -0.679641 6.04246 -2.50004 0.281364 6.07393 -22.1223 11.7928 -2.67364 -23.1488 23.9844 3.16813 -0.0 0.0 -0.0 -5.01637 22.4325 -4.45199 3.98056 14.6614 72.6418 2.26642 -48.3021 1.01635 0.364176 0.0126893 -0.0447794 3.91575 30.0869 35.0293 -0.0 0.0 -0.0 12.4165 27.2386 -24.1862 2.84345 31.7063 -65.3787 0.190373 5.38749 -0.00895697 69.2885 2.66688 7.89461 -1.44069 1.26247 10.2379 0.0 0.0 0.0 -11.578 47.4761 9.45804 -18.452 0.310849 2.80233 22.0278 -1.50544 -3.0114 -13.2656 0.0 0.0 -0.0 0.0 -0.0 6.97218 29.4187 4.94036 -31.9476 0.0354464 -4.83973 25.6381 13.8966 3.63298 -0.868985 0.0 0.0 0.0 0.0 0.0 
425.569 729.018 -574.182 171.113 -52.1508 163.559 -2.35844 1.22945 5.9324 -2.33928 0.850165 5.99828 -2.22636 -0.664786 6.02156 -2.2768 0.292753 6.05096 -19.9588 10.4783 -3.0862 -20.6534 21.7496 1.67457 -0.0 0.0 -0.0 -4.87286 22.5081 -4.2284 2.54072 18.2087 73.0751 2.17421 -47.118 0.948128 -0.0408496 -0.00144096 0.00501796 3.73568 30.5608 33.8508 -0.0 0.0 -0.0 13.3861 27.5793 -26.3728 6.10826 32.8783 -65.3103 0.199061 5.63182 -0.00979108 69.1049 2.64802 7.88048 -1.8131 -0.142207 12.1356 0.0 0.0 0.0 -10.8067 46.8596 8.91804 -18.8653 0.307415 2.86565 22.5375 -0.830384 -3.06796 -11.5532 0.0 0.0 -0.0 0.0 -0.0 6.52833 29.7188 4.48344 -32.2372 0.0481069 -4.88237 25.705 18.4081 3.76253 -2.26165 0.0 0.0 0.0 0.0 0.0 
430.567 731.123 -567.295 171.697 -52.3093 164.252 -2.26647 1.25054 5.8763 -2.24769 0.874759 5.94363 -2.13384 -0.617529 5.97572 -2.18348 0.332224 5.99827 -19.568 10.3637 -1.90798 -20.2008 20.9409 2.62968 -0.0 0.0 -0.0 -4.88838 23.3859 -4.02609 1.38578 18.5336 73.1432 2.09118 -46.0049 0.887842 -0.830159 -0.0299889 0.101774 3.44387 29.9677 31.8587 -0.0 0.0 -0.0 13.3667 26.7377 -26.4361 9.83449 35.1293 -66.4179 0.275798 7.7799 -0.0187534 69.4067 2.67904 7.90366 -2.11399 -2.55027 13.0548 0.0 0.0 0.0 -9.61539 46.3867 7.91819 -18.7192 0.308682 2.84327 22.7135 3.76374 -3.06584 -11.4149 0.0 0.0 -0.0 0.0 -0.0 6.25646 30.1681 3.84801 -31.7447 0.0267056 -4.80982 27.7384 17.1913 3.97095 -3.72481 0.0 0.0 0.0 0.0 0.0 
436.25 726.392 -566.961 171.226 -52.7277 164.127 -2.2802 1.26918 5.70372 -2.26256 0.904284 5.7726 -2.14938 -0.548022 5.81709 -2.19637 0.375949 5.8307 -19.8965 9.81193 -0.503376 -20.4415 19.1626 3.73223 -0.0 0.0 -0.0 -4.6722 23.4675 -3.70469 0.0813627 18.7374 73.1065 1.95748 -44.1132 0.793187 -1.18809 -0.0433738 0.145521 3.50952 30.7232 32.3715 -0.0 0.0 -0.0 13.8395 27.1573 -27.4807 11.771 35.004 -65.6554 0.227827 6.43924 -0.0128157 69.4508 2.68358 7.90704 -2.32712 -4.33663 13.6389 0.0 0.0 0.0 -5.1295 41.3282 4.45923 -19.3055 0.303256 2.93307 22.3251 4.24665 -3.01798 -10.9316 0.0 0.0 -0.0 0.0 -0.0 5.53669 30.4981 3.90199 -32.209 0.046864 -4.87822 28.3416 16.6542 4.02555 -3.63453 0.0 0.0 0.0 0.0 0.0 
437.666 728.799 -567.235 170.835 -53.5793 163.796 -2.32823 1.2726 5.60187 -2.31124 0.914153 5.67118 -2.19912 -0.51828 5.7208 -2.24455 0.390191 5.73093 -20.7769 9.06694 0.577282 -21.2405 17.1992 4.53449 -0.0 0.0 -0.0 -4.6058 23.7439 -3.54405 -0.359178 19.0216 73.1357 1.7745 -41.3128 0.669031 -2.23928 -0.0842622 0.273511 3.05214 29.1938 29.224 -0.0 0.0 -0.0 13.4227 27.3752 -26.4842 12.6948 35.4764 -65.4654 0.326271 9.18122 -0.0261974 69.9098 2.73101 7.94195 -2.39064 -4.67027 13.9058 0.0 0.0 0.0 0.542374 45.7706 0.72985 -21.7413 0.270885 3.30539 21.4244 5.55982 -2.90661 -10.0642 0.0 0.0 -0.0 0.0 -0.0 4.65851 29.1284 4.34093 -31.8482 0.0311514 -4.82508 29.6372 21.8709 4.3578 -4.74687 0.0 0.0 0.0 0.0 0.0 
440.601 730.244 -563.914 171.619 -54.6172 164.638 -2.17064 1.22843 5.47156 -2.15443 0.878324 5.53835 -2.04967 -0.50556 5.58459 -2.09296 0.381346 5.59441 -20.2465 9.10439 1.78084 -20.6519 16.6583 5.56945 -0.0 0.0 -0.0 -4.46656 23.4397 -3.42603 -0.41208 18.9828 73.0574 1.55579 -37.6185 0.529944 -2.60028 -0.0988454 0.317292 3.04659 28.9814 29.1561 -0.0 0.0 -0.0 13.2643 27.3985 -26.1149 13.4966 35.8253 -65.3561 0.405713 11.364 -0.0403672 70.3582 2.77762 7.97569 -2.28537 -3.96344 13.538 0.0 0.0 0.0 4.04037 45.1524 -1.44348 -24.3684 0.218265 3.70506 22.0213 6.79239 -2.97812 -9.49468 0.0 0.0 -0.0 0.0 -0.0 4.8164 28.2673 4.06675 -30.9675 -0.00579403 -4.69498 30.3359 22.571 4.46829 -4.83059 0.0 0.0 0.0 0.0 0.0 
447.13 729.803 -561.272 171.724 -54.6892 164.811 -2.10062 1.26195 5.38303 -2.08498 0.917381 5.45214 -1.97859 -0.439463 5.51111 -2.02068 0.435071 5.51145 -21.0684 8.92344 2.93319 -21.4363 15.7822 6.67516 -0.0 0.0 -0.0 -4.68448 23.8255 -3.63223 -1.50153 19.2115 73.1466 1.389 -34.5287 0.431695 -3.33457 -0.12936 0.406061 2.88122 28.7938 28.0752 -0.0 0.0 -0.0 13.0331 27.3257 -25.5909 14.3724 36.2058 -65.1229 0.474289 13.222 -0.0549697 70.7898 2.82273 8.00782 -2.27127 -4.51 13.1755 0.0 0.0 0.0 7.22822 44.7713 -3.39663 -26.2073 0.170552 3.98322 21.4107 7.64247 -2.90423 -9.11728 0.0 0.0 -0.0 0.0 -0.0 4.11019 27.4584 4.41935 -29.9686 -0.0452661 -4.54678 30.6468 23.1744 4.53042 -5.44522 0.0 0.0 0.0 0.0 0.0 
460.768 722.799 -556.718 169.171 -54.1947 162.4 -2.29311 1.26718 5.32622 -2.27781 0.926201 5.39578 -2.17096 -0.43547 5.45717 -2.21223 0.430534 5.45756 -25.0592 8.77996 3.73539 -25.504 15.3599 7.98232 -0.0 0.0 -0.0 -4.72178 24.01 -3.63722 -3.20003 19.4058 73.3054 1.23713 -31.5003 0.348924 -4.10409 -0.162559 0.498668 2.85031 28.2256 27.7824 -0.0 0.0 -0.0 12.859 27.2419 -25.2007 16.1857 36.3553 -65.5341 0.679673 18.6079 -0.11135 71.5597 2.9038 8.06429 -2.50077 -7.15606 13.4085 0.0 0.0 0.0 9.30251 43.5845 -3.90043 -27.453 0.133162 4.17075 20.7007 10.4051 -2.82197 -9.13188 0.0 0.0 -0.0 0.0 -0.0 2.71705 28.6662 4.46418 -34.2111 0.140128 -5.17123 32.4876 19.7151 4.59537 -6.04569 0.0 0.0 0.0 0.0 0.0 
470.01 722.207 -554.18 167.869 -54.793 160.91 -2.32093 1.16459 5.27524 -2.30583 0.82704 5.33841 -2.20972 -0.521425 5.37676 -2.24988 0.333006 5.39166 -25.8552 8.90515 3.67789 -26.346 15.662 8.13046 -0.0 0.0 -0.0 -4.75252 23.8375 -3.72297 -4.86795 19.1603 74.1046 1.11165 -28.8399 0.285845 -4.60404 -0.184795 0.558595 2.8678 27.8837 27.8335 -0.0 0.0 -0.0 12.7067 27.1577 -24.8614 17.3161 36.4792 -65.6285 0.804829 21.7365 -0.154526 71.9613 2.94638 8.09332 -2.5996 -8.8357 13.2142 0.0 0.0 0.0 11.3935 42.6789 -5.83501 -28.245 0.107275 4.28953 19.1908 12.0181 -2.63922 -9.2056 0.0 0.0 -0.0 0.0 -0.0 1.66732 30.2528 4.66598 -36.0981 0.237373 -5.44433 31.9834 17.4466 4.45966 -6.89682 0.0 0.0 0.0 0.0 0.0 
